<?xml version="1.0" encoding="utf-8"?>
<!-- Generator: Adobe Illustrator 28.1.0, SVG Export Plug-In . SVG Version: 6.00 Build 0)  -->
<svg version="1.1" id="Layer_1" xmlns="http://www.w3.org/2000/svg" xmlns:xlink="http://www.w3.org/1999/xlink" x="0px" y="0px"
	 viewBox="0 0 337.5 74" style="enable-background:new 0 0 337.5 74;" xml:space="preserve">
<style type="text/css">
	.st0{fill:#FFFFFF;}
</style>
<g>
	<polygon class="st0" points="5.2,65.8 24.6,65.8 32,47.4 56.1,47.4 62.1,32.8 38,32.8 42,22.9 69.4,22.9 75.3,8.2 28.5,8.2 	"/>
	<path class="st0" d="M164.6,26.5c1.7-1.3,3.6-2.2,5.6-2.9c2-0.7,4.1-1,6.2-1c2.6,0,4.7,0.5,6.4,1.6s3,2.6,4,4.7L203.5,18
		c-1.4-3.6-4-6.3-7.8-8.2c-3.7-1.9-8.4-2.9-14.1-2.9c-4.8,0-9.5,0.7-14,2.2c-4.6,1.5-8.8,3.5-12.8,6.2c-4,2.7-7.6,5.9-10.6,9.5
		c-3.1,3.7-5.5,7.7-7.3,12.2c-1.8,4.4-2.6,8.5-2.5,12.2c0.1,3.7,1,6.9,2.9,9.5c1.8,2.7,4.4,4.8,7.7,6.2c3.3,1.5,7.3,2.2,12,2.2
		c4.2,0,8.8-0.6,13.9-1.9c5-1.3,9.8-3.1,14.2-5.4l9.8-24.3h-16.9l-5.9,14.6c-0.2,0.1-0.5,0.2-0.8,0.3c-2.4,0.7-4.6,1.1-6.8,1.1
		c-2.1,0-3.9-0.3-5.2-1c-1.4-0.7-2.4-1.7-3.1-2.9c-0.7-1.3-1-2.8-0.9-4.6s0.5-3.7,1.4-5.9c0.9-2.2,2-4.3,3.4-6
		C161.3,29.3,162.9,27.8,164.6,26.5z"/>
	<path class="st0" d="M227.9,26.5c1.7-1.3,3.6-2.2,5.6-2.9c2-0.7,4.1-1,6.2-1c2.6,0,4.7,0.5,6.4,1.6s3,2.6,4,4.7L266.9,18
		c-1.4-3.6-4-6.3-7.8-8.2s-8.4-2.9-14.1-2.9c-4.8,0-9.5,0.7-14,2.2c-4.6,1.5-8.8,3.5-12.8,6.2c-4,2.7-7.6,5.9-10.6,9.5
		c-3.1,3.7-5.5,7.7-7.3,12.2c-1.8,4.4-2.6,8.5-2.5,12.2c0.1,3.7,1,6.9,2.9,9.5c1.8,2.7,4.4,4.8,7.7,6.2c3.3,1.5,7.3,2.2,12,2.2
		c4.2,0,8.8-0.6,13.9-1.9c5-1.3,9.8-3.1,14.2-5.4l9.8-24.3h-16.9l-5.9,14.6c-0.2,0.1-0.5,0.2-0.8,0.3c-2.4,0.7-4.6,1.1-6.8,1.1
		c-2.1,0-3.9-0.3-5.2-1c-1.4-0.7-2.4-1.7-3.1-2.9c-0.7-1.3-1-2.8-0.9-4.6s0.5-3.7,1.4-5.9c0.9-2.2,2-4.3,3.4-6
		C224.7,29.3,226.2,27.8,227.9,26.5z"/>
	<polygon class="st0" points="314.7,8.2 294.8,28.2 291.1,8.2 270.6,8.2 277.5,44.7 269,65.8 288.5,65.8 297,44.9 333.5,8.2 	"/>
	<path class="st0" d="M134.6,25c-0.1-3.6-1.1-6.8-3-9.5s-4.4-4.8-7.7-6.3c-3.4-1.5-7.4-2.2-12.1-2.2s-9.3,0.7-13.9,2.2
		c-4.6,1.5-8.9,3.6-12.9,6.3s-7.6,5.9-10.6,9.5c-3.1,3.7-5.5,7.7-7.3,12.1c-1.7,4.3-2.6,8.3-2.5,12c0.1,3.7,1.1,6.9,2.9,9.6
		c1.8,2.7,4.5,4.8,7.7,6.3c3.4,1.5,7.4,2.2,12.1,2.2s9.3-0.7,13.8-2.2c4.6-1.5,8.9-3.6,12.9-6.3s7.6-5.9,10.7-9.6
		c3.1-3.7,5.5-7.7,7.3-12C133.9,32.6,134.8,28.6,134.6,25z M114.2,29.8L79.2,58.3L97.1,36l-8.3-0.1l14.9-21.4l16.9-0.2l-16.7,15.5
		H114.2z"/>
</g>
</svg>
