<?xml version="1.0" encoding="utf-8"?>
<!-- Generator: Adobe Illustrator 28.1.0, SVG Export Plug-In . SVG Version: 6.00 Build 0)  -->
<svg version="1.1" id="Layer_1" xmlns="http://www.w3.org/2000/svg" xmlns:xlink="http://www.w3.org/1999/xlink" x="0px" y="0px"
	 viewBox="0 0 175 120" style="enable-background:new 0 0 175 120;" xml:space="preserve">
<style type="text/css">
	.st0{fill:#FF0000;}
	.st1{fill:#FFFFFF;}
</style>
<g transform="matrix(5.715038, 0, 0, 5.715038, 409.288757, 277.787231)">
	<g>
		<path class="st0" d="M-43.1-44.6c-0.3-1.2-1.2-2.1-2.4-2.4c-2.1-0.6-10.7-0.6-10.7-0.6s-8.6,0-10.7,0.6c-1.2,0.3-2.1,1.2-2.4,2.4
			c-0.6,2.1-0.6,6.6-0.6,6.6s0,4.5,0.6,6.6c0.3,1.2,1.2,2.1,2.4,2.4c2,0.6,10.6,0.6,10.6,0.6s8.6,0,10.7-0.6
			c1.2-0.3,2.1-1.2,2.4-2.4c0.6-2.1,0.6-6.6,0.6-6.6S-42.5-42.5-43.1-44.6z"/>
		<path class="st1" d="M-59-33.9l7.1-4.1l-7.1-4.1V-33.9z"/>
	</g>
</g>
</svg>
